<svg width="22" height="23" viewBox="0 0 22 23" fill="none" xmlns="http://www.w3.org/2000/svg">
<path d="M13.684 12.536C15.504 11.416 16.68 9.204 16.68 7.16C16.68 4.248 14.3 1 11.08 1C7.86 1 5.48 4.248 5.48 7.16C5.48 9.204 6.656 11.416 8.476 12.536C4.164 13.684 1 17.632 1 22.28C1 22.588 1.252 22.84 1.56 22.84H20.6C20.908 22.84 21.16 22.588 21.16 22.28C21.16 17.632 17.996 13.684 13.684 12.536ZM6.6 7.16C6.6 4.276 8.98 2.12 11.08 2.12C13.18 2.12 15.56 4.276 15.56 7.16C15.56 10.044 13.18 12.2 11.08 12.2C8.98 12.2 6.6 10.044 6.6 7.16ZM2.148 21.72C2.428 17.044 6.348 13.32 11.08 13.32C15.812 13.32 19.732 17.044 20.012 21.72H2.148Z" fill="#00DB4B" stroke="#00DB4B" stroke-width="0.3"/>
</svg>
